<svg width="238" height="79" viewBox="0 0 238 79" fill="none" xmlns="http://www.w3.org/2000/svg">
<g id="Capa_1" clip-path="url(#clip0_0_127)">
<g id="Group">
<path id="Vector" d="M2.83 0H0V2.83V13.89V16.72H2.83H18.05V52.59V55.42H20.89H32.26H35.09V52.59V16.72H50.31H53.14V13.89V2.83V0H50.31H2.83Z" fill="#3AF942"/>
<path id="Vector_2" d="M59.03 0H56.2V2.83V52.59V55.42H59.03H70.4H73.23V52.59V2.83V0H70.4H59.03Z" fill="#3AF942"/>
<path id="Vector_3" d="M136.59 0H75.55V16.72H93.6V55.41H110.63V16.72H126.27C126.36 15.17 126.62 13.63 127.06 12.15C128.55 7.02 132.04 2.66 136.58 0L136.59 0Z" fill="#3AF942"/>
<path id="Vector_4" d="M147.04 0C145.34 0 143.65 0.24 142.02 0.71C136.17 2.41 131.48 7.1 129.78 12.95C129.42 14.18 129.2 15.45 129.11 16.73C129.08 17.15 129.06 17.56 129.06 17.98V55.43H145.63V39.58L165.45 45.35V55.42H182.02V0H147.03H147.04ZM165.46 16.72V28.29L145.64 22.52V19.03C145.64 17.97 146.31 17.06 147.26 16.72H165.46Z" fill="#3AF942"/>
<path id="Vector_5" d="M236.85 12.95C235.15 7.11 230.46 2.42 224.61 0.71C222.98 0.24 221.29 0 219.58 0H184.59V55.42H201.16V16.57H218.52C219.87 16.57 220.98 17.67 220.98 19.03V55.42H237.56V17.97C237.56 16.26 237.32 14.57 236.85 12.94V12.95Z" fill="#3AF942"/>
</g>
<g id="Group_2">
<path id="Vector_6" d="M0 76.1499V70.6299L2.68 68.3999H11.33V70.5399H3.84L2.58 71.5999V75.1699L3.84 76.2299H8.71L9.94 75.1999V74.2299H5.56V72.2999H12.5V76.1699L9.82 78.3999H2.68L0 76.1599V76.1499Z" fill="#3AF942"/>
<path id="Vector_7" d="M16.11 68.3999H25.22L27.55 70.3999V73.2999L25.47 75.0699L27.87 77.6399V78.3999H25.24L22.51 75.3599H18.71V78.3999H16.13V68.4099L16.11 68.3999ZM24 73.2099L24.97 72.4099V71.3399L24.01 70.5299H18.7V73.2099H24Z" fill="#3AF942"/>
<path id="Vector_8" d="M31.43 76.0301V68.4101H34V75.0801L35.3 76.1501H38.9L40.17 75.0801V68.4101H42.74V76.0501L39.97 78.4001H34.23L31.43 76.0301ZM36.2 67.6201L37.11 65.5801H39.22L39.19 65.8201L37.93 67.8301H36.19V67.6201H36.2Z" fill="#3AF942"/>
<path id="Vector_9" d="M45.24 77.6402L50.39 68.4102H53.79L58.97 77.6402V78.4002H56.46L52.25 70.5502H51.89L47.67 78.4002H45.23V77.6402H45.24ZM49.19 74.2701H54.94L55.88 76.4402H48.3L49.18 74.2701H49.19Z" fill="#3AF942"/>
<path id="Vector_10" d="M61.34 76.2999H69.26L69.92 75.7399V74.9699L69.25 74.4099H63.2L61.12 72.6299V70.1699L63.22 68.3999H71.91V70.4999H64.36L63.69 71.0599V71.7299L64.36 72.2999H70.41L72.49 74.0699V76.6199L70.41 78.3899H61.33V76.2899L61.34 76.2999Z" fill="#3AF942"/>
<path id="Vector_11" d="M86.16 75.0099L81.35 69.1599V68.3999H83.88L87.28 72.6499H87.72L91.12 68.3999H93.52V69.1599L88.74 75.0099L88.71 78.3899H86.14L86.17 75.0099H86.16Z" fill="#3AF942"/>
<path id="Vector_12" d="M103.09 68.3999H107.06L110.11 74.0699H110.5L113.57 68.3999H117.45V78.3899H114.98V71.0999H114.67L111.57 76.8499H109.02L105.91 71.0999H105.58V78.3899H103.1V68.3999H103.09Z" fill="#3AF942"/>
<path id="Vector_13" d="M120.62 77.6402L125.77 68.4102H129.17L134.35 77.6402V78.4002H131.84L127.63 70.5502H127.27L123.05 78.4002H120.61V77.6402H120.62ZM124.57 74.2701H130.32L131.26 76.4402H123.68L124.56 74.2701H124.57Z" fill="#3AF942"/>
<path id="Vector_14" d="M137.47 68.3999H141.31L146.35 75.7899H146.68V68.3999H149.14V78.3899H145.32L140.28 70.9999H139.95V78.3899H137.48V68.3999H137.47Z" fill="#3AF942"/>
<path id="Vector_15" d="M152.84 76.3399H155.39V70.4599H152.84V68.3999H160.5V70.4599H157.96V76.3399H160.51V78.3999H152.82V76.3399H152.84Z" fill="#3AF942"/>
<path id="Vector_16" d="M163.86 76.1499V70.6299L166.54 68.3999H173.68L176.35 70.6399V76.1599L173.68 78.3899H166.54L163.86 76.1499ZM172.54 76.2199L173.78 75.1599V71.6199L172.52 70.5599H167.68L166.44 71.6199V75.1599L167.7 76.2199H172.54Z" fill="#3AF942"/>
<path id="Vector_17" d="M180.33 68.3999H189.69L191.63 70.0099V72.1399L190.72 72.9099L192.28 74.2199V76.6199L190.2 78.3899H180.34V68.3999H180.33ZM188.38 72.3299L189.06 71.7599V70.9899L188.38 70.4499H182.91V72.3299H188.38ZM188.84 76.3499L189.71 75.6499V74.9499L188.87 74.2399H182.92V76.3499H188.84Z" fill="#3AF942"/>
<path id="Vector_18" d="M195.96 68.3999H205.07L207.4 70.3999V73.2999L205.32 75.0699L207.72 77.6399V78.3999H205.09L202.36 75.3599H198.56V78.3999H195.98V68.4099L195.96 68.3999ZM203.85 73.2099L204.82 72.4099V71.3399L203.86 70.5299H198.55V73.2099H203.85Z" fill="#3AF942"/>
<path id="Vector_19" d="M210.3 77.6402L215.45 68.4102H218.85L224.03 77.6402V78.4002H221.52L217.31 70.5502H216.95L212.73 78.4002H210.29V77.6402H210.3ZM214.25 74.2701H220L220.94 76.4402H213.36L214.24 74.2701H214.25Z" fill="#3AF942"/>
<path id="Vector_20" d="M226.4 76.2999H234.32L234.98 75.7399V74.9699L234.31 74.4099H228.26L226.18 72.6299V70.1699L228.28 68.3999H236.97V70.4999H229.42L228.75 71.0599V71.7299L229.42 72.2999H235.47L237.55 74.0699V76.6199L235.47 78.3899H226.39V76.2899L226.4 76.2999Z" fill="#3AF942"/>
</g>
</g>
<defs>
<clipPath id="clip0_0_127">
<rect width="237.56" height="78.39" fill="white"/>
</clipPath>
</defs>
</svg>
