<svg width="33" height="25" viewBox="0 0 33 25" fill="none" xmlns="http://www.w3.org/2000/svg">
<g id="ELEMENTS" clip-path="url(#clip0_0_166)">
<path id="Vector" d="M2.45307 0.34888L13.9163 13.1564C14.5692 13.8817 15.5113 14.3041 16.4907 14.3041C17.47 14.3041 18.4121 13.8909 19.065 13.1564L30.3417 0.569225C30.435 0.468234 30.5469 0.385604 30.6588 0.321337C30.1831 0.119354 29.6515 0 29.1012 0H3.8988C3.36715 0 2.86347 0.100992 2.40643 0.293794C2.42509 0.312156 2.44374 0.330518 2.4624 0.34888H2.45307Z" fill="#3AF942"/>
<path id="Vector_2" d="M32.4031 1.79956C32.3564 1.9281 32.2818 2.05663 32.1792 2.1668L20.9118 14.754C19.7925 16.0026 18.1883 16.7188 16.5 16.7188C14.8118 16.7188 13.2075 16.0026 12.0882 14.754L0.62494 1.93728C0.62494 1.93728 0.587631 1.88219 0.568977 1.85465C0.214539 2.43305 0.00933838 3.10327 0.00933838 3.82857V21.1624C0.00933838 23.2832 1.75354 25.0001 3.90815 25.0001H29.1199C31.2745 25.0001 33.0187 23.2832 33.0187 21.1624V3.83775C33.0187 3.08491 32.7948 2.39633 32.4217 1.79956H32.4031Z" fill="#3AF942"/>
</g>
<defs>
<clipPath id="clip0_0_166">
<rect width="33" height="25" fill="white"/>
</clipPath>
</defs>
</svg>
