<svg width="33" height="43" viewBox="0 0 33 43" fill="none" xmlns="http://www.w3.org/2000/svg">
<g id="ELEMENTS" clip-path="url(#clip0_0_169)">
<path id="Vector" d="M16.5 10.8557C13.7932 10.8557 11.5809 13.0691 11.5809 15.8048C11.5809 18.5405 13.7809 20.7539 16.5 20.7539C19.2191 20.7539 21.4191 18.5405 21.4191 15.8048C21.4191 13.0691 19.2191 10.8557 16.5 10.8557Z" fill="#3AF942"/>
<path id="Vector_2" d="M16.5 0C7.39101 0 0 7.43609 0 16.6006C0 24.4222 12.0011 38.5607 15.536 42.5648C16.0551 43.1492 16.9573 43.1492 17.4764 42.5648C21.0112 38.5607 33.0124 24.4222 33.0124 16.6006C33 7.43609 25.609 0 16.5 0ZM16.5 24.0119C12.0011 24.0119 8.3427 20.3311 8.3427 15.8048C8.3427 11.2785 12.0011 7.59774 16.5 7.59774C20.9989 7.59774 24.6573 11.2785 24.6573 15.8048C24.6573 20.3311 20.9989 24.0119 16.5 24.0119Z" fill="#3AF942"/>
</g>
<defs>
<clipPath id="clip0_0_169">
<rect width="33" height="43" fill="white"/>
</clipPath>
</defs>
</svg>
