<?xml version="1.0" encoding="UTF-8"?>
<svg id="Capa_2" data-name="Capa 2" xmlns="http://www.w3.org/2000/svg" viewBox="0 0 224.9 224.9">
  <defs>
    <style>
      .cls-1, .cls-2 {
        stroke-width: 0px;
      }

      .cls-2 {
        fill: #3af942;
      }
    </style>
  </defs>
  <g id="Capa_1-2" data-name="Capa 1">
    <rect class="cls-2" width="224.9" height="224.9"/>
    <g>
      <polygon class="cls-1" points="20.74 90.53 18.5 90.53 18.5 92.77 18.5 101.52 18.5 103.76 20.74 103.76 32.78 103.76 32.78 132.13 32.78 134.37 35.02 134.37 44.01 134.37 46.25 134.37 46.25 132.13 46.25 103.76 58.29 103.76 60.53 103.76 60.53 101.52 60.53 92.77 60.53 90.53 58.29 90.53 20.74 90.53"/>
      <polygon class="cls-1" points="65.19 90.53 62.95 90.53 62.95 92.77 62.95 132.13 62.95 134.37 65.19 134.37 74.18 134.37 76.42 134.37 76.42 132.13 76.42 92.77 76.42 90.53 74.18 90.53 65.19 90.53"/>
      <path class="cls-1" d="M126.53,90.53h-48.28v13.23h14.28v30.61h13.47v-30.61h12.37c.07-1.23.28-2.44.62-3.61,1.18-4.06,3.94-7.5,7.53-9.61Z"/>
      <path class="cls-1" d="M134.8,90.53c-1.35,0-2.68.19-3.97.56-4.63,1.35-8.33,5.06-9.68,9.68-.28.97-.46,1.97-.53,2.99-.02.33-.04.66-.04.99v29.62h13.11v-12.54l15.68,4.57v7.97h13.11v-43.84h-27.67ZM149.37,103.76v9.15l-15.68-4.56v-2.76c0-.84.53-1.56,1.28-1.83h14.4Z"/>
      <path class="cls-1" d="M205.84,100.77c-1.35-4.62-5.06-8.33-9.68-9.68-1.28-.37-2.62-.56-3.98-.56h-27.67v43.84h13.11v-30.73h13.73c1.07,0,1.94.87,1.94,1.95v28.78h13.11v-29.62c0-1.35-.19-2.69-.56-3.98Z"/>
    </g>
  </g>
</svg>