<svg width="78" height="78" viewBox="0 0 78 78" fill="none" xmlns="http://www.w3.org/2000/svg">
<g id="Capa_1" clip-path="url(#clip0_0_20)">
<path id="Vector" d="M38.53 0C17.28 0 0 17.28 0 38.53C0 45.54 1.95 52.45 5.64 58.5L6.64 60.14L2.79 74.5L17.24 70.63L18.87 71.6C24.85 75.16 31.65 77.04 38.54 77.04C59.78 77.04 77.07 59.76 77.07 38.52C77.07 17.28 59.77 0 38.53 0ZM61.16 53.08C59.73 56.56 56.17 58.8 52.55 59.48C49.1 60.13 46.25 59.04 43.06 57.98C40.21 57.04 37.46 55.67 34.91 54.1C29.8 50.97 25.38 46.78 21.84 41.96C20.75 40.49 19.75 38.96 18.82 37.38C17.59 35.29 16.5 33.08 15.93 30.73C15.69 29.75 15.57 28.74 15.56 27.72C15.52 24.14 16.88 20.54 19.71 18.23C21.35 16.9 23.77 16.31 25.61 17.35C27.61 18.48 28.65 21.33 29.57 23.32C30.29 24.88 31.12 26.93 30.82 28.69C30.52 30.44 29.13 31.92 28.02 33.23C27.28 34.11 27.16 34.86 27.78 35.8C31.44 41.9 36.53 46.33 43.16 48.97C44.06 49.33 44.76 49.22 45.35 48.5C46.49 47.09 47.62 44.32 49.39 43.6C51.69 42.66 54.24 43.96 56.19 45.13C58.01 46.22 61.06 47.55 61.55 49.81C61.79 50.9 61.58 52.05 61.15 53.08H61.16Z" fill="#3AF942"/>
<path id="Vector_2" d="M38.53 0C17.28 0 0 17.28 0 38.53C0 45.54 1.95 52.45 5.64 58.5L6.64 60.14L2.79 74.5L17.24 70.63L18.87 71.6C24.85 75.16 31.65 77.04 38.54 77.04C59.78 77.04 77.07 59.76 77.07 38.52C77.07 17.28 59.77 0 38.53 0ZM61.16 53.08C59.73 56.56 56.17 58.8 52.55 59.48C49.1 60.13 46.25 59.04 43.06 57.98C40.21 57.04 37.46 55.67 34.91 54.1C29.8 50.97 25.38 46.78 21.84 41.96C20.75 40.49 19.75 38.96 18.82 37.38C17.59 35.29 16.5 33.08 15.93 30.73C15.69 29.75 15.57 28.74 15.56 27.72C15.52 24.14 16.88 20.54 19.71 18.23C21.35 16.9 23.77 16.31 25.61 17.35C27.61 18.48 28.65 21.33 29.57 23.32C30.29 24.88 31.12 26.93 30.82 28.69C30.52 30.44 29.13 31.92 28.02 33.23C27.28 34.11 27.16 34.86 27.78 35.8C31.44 41.9 36.53 46.33 43.16 48.97C44.06 49.33 44.76 49.22 45.35 48.5C46.49 47.09 47.62 44.32 49.39 43.6C51.69 42.66 54.24 43.96 56.19 45.13C58.01 46.22 61.06 47.55 61.55 49.81C61.79 50.9 61.58 52.05 61.15 53.08H61.16Z" fill="#3AF942"/>
</g>
<defs>
<clipPath id="clip0_0_20">
<rect width="77.05" height="77.05" fill="white"/>
</clipPath>
</defs>
</svg>
